<?xml version="1.0" encoding="iso-8859-1"?>
<!-- Generator: Adobe Illustrator 18.0.0, SVG Export Plug-In . SVG Version: 6.00 Build 0)  -->
<!DOCTYPE svg PUBLIC "-//W3C//DTD SVG 1.1//EN" "http://www.w3.org/Graphics/SVG/1.1/DTD/svg11.dtd">
<svg version="1.1" id="Capa_1" xmlns="http://www.w3.org/2000/svg" xmlns:xlink="http://www.w3.org/1999/xlink" x="0px" y="0px"
	 viewBox="0 0 455.731 455.731" style="enable-background:new 0 0 455.731 455.731;" xml:space="preserve">
<path d="M0,0v455.731h455.731V0H0z M365.342,252.874c10.995,11.342,22.766,21.954,33.414,33.605
	c7.738,8.477,14.9,17.674,21.032,27.355c7.756,12.245,2.965,23.778-11.524,25.832c-9.115,1.286-53.641,0.01-55.942,0
	c-11.971-0.054-22.464-4.207-30.914-12.336c-9.398-9.052-17.939-18.979-26.963-28.423c-2.719-2.847-5.621-5.575-8.75-7.957
	c-7.382-5.63-14.627-4.38-18.076,4.289c-2.947,7.446-5.493,27-5.612,28.669c-0.62,8.732-6.177,14.298-15.959,14.836
	c-28.24,1.533-55.605-1.615-81.098-15.274c-21.607-11.57-38.861-27.93-53.807-47.009c-23.742-30.304-42.495-63.615-59.616-97.904
	c-0.875-1.753-18.216-38.653-18.682-40.396c-1.549-5.836-0.104-11.411,4.827-13.33c3.074-1.197,60.248-0.004,61.199,0.047
	c9.123,0.493,15.345,4.342,19.187,13.812c10.922,26.972,24.764,52.402,42.995,75.231c2.418,3.039,5.466,5.739,8.677,7.938
	c4.69,3.221,9.115,2.089,11.022-3.276c2.017-5.63,3.868-17.04,3.978-22.952c0.301-15.448-0.045-25.572-0.875-41.001
	c-0.538-9.882-4.051-18.559-18.587-21.178c-4.489-0.812-4.906-4.507-2.022-8.193c6.004-7.674,14.368-8.897,23.438-9.381
	c14.7-0.794,29.454-0.146,44.172,0c5.995,0.055,12.026,0.538,17.93,1.825c7.701,1.679,11.825,7.081,13.094,14.599
	c0.657,3.878,0.995,7.865,0.903,11.789c-0.383,16.862-1.195,33.715-1.387,50.568c-0.082,6.615,0.401,13.395,1.816,19.837
	c1.98,8.979,8.093,11.232,14.344,4.745c7.938-8.24,14.937-17.51,21.506-26.926c11.935-17.127,20.849-35.923,28.523-55.303
	c3.969-10,7.008-12.172,17.765-12.199c20.22-0.046,40.44-0.064,60.66,0c3.586,0.018,7.336,0.356,10.721,1.432
	c5.493,1.752,7.674,6.232,6.387,11.917c-3.002,13.322-10.201,24.645-17.911,35.531c-12.373,17.464-25.339,34.509-38.003,51.772
	c-1.615,2.199-3.038,4.544-4.362,6.926C358.107,240.948,358.435,245.747,365.342,252.874z"/>
<g>
</g>
<g>
</g>
<g>
</g>
<g>
</g>
<g>
</g>
<g>
</g>
<g>
</g>
<g>
</g>
<g>
</g>
<g>
</g>
<g>
</g>
<g>
</g>
<g>
</g>
<g>
</g>
<g>
</g>
</svg>
