<svg height="368pt" viewBox="-37 0 368 368.64" width="368pt" xmlns="http://www.w3.org/2000/svg"><path d="m41.28125 219.144531v-212.316406c0-3.773437-3.058594-6.828125-6.828125-6.828125s-6.828125 3.054688-6.828125 6.828125v212.316406c-15.558594 3.171875-27.304688 16.960938-27.304688 33.441407 0 16.484374 11.746094 30.273437 27.304688 33.445312v75.78125c0 3.769531 3.058594 6.828125 6.828125 6.828125s6.828125-3.058594 6.828125-6.828125v-75.78125c15.558594-3.171875 27.304688-16.960938 27.304688-33.445312 0-16.480469-11.746094-30.269532-27.304688-33.441407zm-6.828125 53.921875c-11.292969 0-20.480469-9.1875-20.480469-20.480468 0-11.292969 9.1875-20.480469 20.480469-20.480469s20.480469 9.1875 20.480469 20.480469c0 11.292968-9.1875 20.480468-20.480469 20.480468zm0 0"/><path d="m293.867188 102.398438c0-16.480469-11.746094-30.269532-27.308594-33.441407v-62.128906c0-3.773437-3.054688-6.828125-6.824219-6.828125s-6.828125 3.054688-6.828125 6.828125v62.128906c-15.558594 3.171875-27.304688 16.960938-27.304688 33.441407 0 16.484374 11.746094 30.273437 27.304688 33.445312v225.96875c0 3.769531 3.058594 6.828125 6.828125 6.828125s6.824219-3.058594 6.824219-6.828125v-225.96875c15.5625-3.171875 27.308594-16.960938 27.308594-33.445312zm-34.132813 20.480468c-11.292969 0-20.480469-9.1875-20.480469-20.480468 0-11.292969 9.1875-20.476563 20.480469-20.476563s20.480469 9.183594 20.480469 20.476563c0 11.292968-9.1875 20.480468-20.480469 20.480468zm0 0"/><path d="m116.375 103.089844v-96.261719c0-3.773437-3.058594-6.828125-6.828125-6.828125s-6.828125 3.054688-6.828125 6.828125v96.261719c-15.558594 3.171875-27.304688 16.960937-27.304688 33.445312 0 16.480469 11.746094 30.269532 27.304688 33.441406v191.835938c0 3.769531 3.058594 6.828125 6.828125 6.828125s6.828125-3.058594 6.828125-6.828125v-191.835938c15.558594-3.171874 27.304688-16.960937 27.304688-33.441406 0-16.484375-11.746094-30.273437-27.304688-33.445312zm-6.828125 53.921875c-11.292969 0-20.480469-9.183594-20.480469-20.476563 0-11.292968 9.1875-20.480468 20.480469-20.480468s20.480469 9.1875 20.480469 20.480468c0 11.292969-9.1875 20.476563-20.480469 20.476563zm0 0"/><path d="m191.464844 266.929688v-260.101563c0-3.773437-3.054688-6.828125-6.824219-6.828125s-6.828125 3.054688-6.828125 6.828125v260.101563c-15.558594 3.171874-27.304688 16.960937-27.304688 33.445312 0 16.480469 11.746094 30.269531 27.304688 33.441406v27.996094c0 3.769531 3.058594 6.828125 6.828125 6.828125s6.824219-3.058594 6.824219-6.828125v-27.996094c15.5625-3.171875 27.308594-16.960937 27.308594-33.441406 0-16.484375-11.746094-30.273438-27.308594-33.445312zm-6.824219 53.921874c-11.292969 0-20.480469-9.183593-20.480469-20.476562s9.1875-20.480469 20.480469-20.480469 20.480469 9.1875 20.480469 20.480469-9.1875 20.476562-20.480469 20.476562zm0 0"/></svg>